<?xml version="1.0" encoding="utf-8"?>
<!-- Generator: Adobe Illustrator 24.0.0, SVG Export Plug-In . SVG Version: 6.00 Build 0)  -->
<svg version="1.1" xmlns="http://www.w3.org/2000/svg" xmlns:xlink="http://www.w3.org/1999/xlink" x="0px" y="0px"
	 viewBox="0 0 100 125" style="enable-background:new 0 0 100 125;" xml:space="preserve">
<style type="text/css">
	.st0{fill:#FFFFFF;}
</style>
<g id="Calque_2">
</g>
<g id="Calque_1">
	<g>
		<path class="st0" d="M29.9,29.9c1.3,0,2.3-1,2.3-2.3V24H64v-4.6H32.2v-3.6c0-1.3-1-2.3-2.3-2.3s-2.3,1-2.3,2.3v11.8
			C27.6,28.8,28.6,29.9,29.9,29.9z"/>
		<path class="st0" d="M86.2,19.4H72.4v-3.6c0-1.3-1-2.3-2.3-2.3s-2.3,1-2.3,2.3v11.8c0,1.3,1,2.3,2.3,2.3s2.3-1,2.3-2.3V24h13.8
			c1.4,0,2.6,1.2,2.6,2.6v9.1H11.3v-9.1c0-1.4,1.2-2.6,2.6-2.6h9.9v-4.6h-9.9c-3.9,0-7.2,3.2-7.2,7.2v74.8c0,3.9,3.2,7.2,7.2,7.2
			h72.3c3.9,0,7.2-3.2,7.2-7.2V26.6C93.3,22.6,90.1,19.4,86.2,19.4z M88.7,101.3c0,1.4-1.2,2.6-2.6,2.6H13.8c-1.4,0-2.6-1.2-2.6-2.6
			v-61h77.5V101.3z"/>
		<path class="st0" d="M41.3,59.6c3.8,0,6.8-3,6.8-6.8s-3-6.8-6.8-6.8c-3.7,0-6.8,3-6.8,6.8C34.5,56.5,37.6,59.6,41.3,59.6z
			 M41.3,49.8c1.6,0,3,1.3,3,3s-1.4,3-3,3s-3-1.3-3-3S39.7,49.8,41.3,49.8z"/>
		<path class="st0" d="M23.9,59.6c3.7,0,6.8-3,6.8-6.8s-3-6.8-6.8-6.8s-6.8,3-6.8,6.8C17.2,56.5,20.2,59.6,23.9,59.6z M23.9,49.8
			c1.6,0,3,1.3,3,3s-1.3,3-3,3c-1.6,0-3-1.3-3-3S22.3,49.8,23.9,49.8z"/>
		<path class="st0" d="M58.7,59.6c3.7,0,6.8-3,6.8-6.8s-3-6.8-6.8-6.8s-6.8,3-6.8,6.8C51.9,56.5,54.9,59.6,58.7,59.6z M58.7,49.8
			c1.6,0,3,1.3,3,3s-1.3,3-3,3c-1.6,0-3-1.3-3-3S57.1,49.8,58.7,49.8z"/>
		<path class="st0" d="M76.1,59.6c3.7,0,6.8-3,6.8-6.8s-3-6.8-6.8-6.8c-3.7,0-6.8,3-6.8,6.8C69.3,56.5,72.3,59.6,76.1,59.6z
			 M76.1,49.8c1.6,0,3,1.3,3,3s-1.3,3-3,3c-1.6,0-3-1.3-3-3S74.4,49.8,76.1,49.8z"/>
		<path class="st0" d="M23.9,78.9c3.7,0,6.8-3,6.8-6.8c0-3.7-3-6.8-6.8-6.8s-6.8,3-6.8,6.8C17.2,75.8,20.2,78.9,23.9,78.9z
			 M23.9,69.1c1.6,0,3,1.3,3,3c0,1.6-1.3,3-3,3c-1.6,0-3-1.3-3-3C21,70.5,22.3,69.1,23.9,69.1z"/>
		<path class="st0" d="M41.3,78.9c3.8,0,6.8-3,6.8-6.8c0-3.7-3-6.8-6.8-6.8c-3.7,0-6.8,3-6.8,6.8C34.5,75.8,37.6,78.9,41.3,78.9z
			 M41.3,69.1c1.6,0,3,1.3,3,3c0,1.6-1.4,3-3,3s-3-1.3-3-3C38.3,70.5,39.7,69.1,41.3,69.1z"/>
		<path class="st0" d="M58.7,78.9c3.7,0,6.8-3,6.8-6.8c0-3.7-3-6.8-6.8-6.8s-6.8,3-6.8,6.8C51.9,75.8,54.9,78.9,58.7,78.9z
			 M58.7,69.1c1.6,0,3,1.3,3,3c0,1.6-1.3,3-3,3c-1.6,0-3-1.3-3-3C55.7,70.5,57.1,69.1,58.7,69.1z"/>
		<path class="st0" d="M76.1,78.9c3.7,0,6.8-3,6.8-6.8c0-3.7-3-6.8-6.8-6.8c-3.7,0-6.8,3-6.8,6.8C69.3,75.8,72.3,78.9,76.1,78.9z
			 M76.1,69.1c1.6,0,3,1.3,3,3c0,1.6-1.3,3-3,3c-1.6,0-3-1.3-3-3C73.1,70.5,74.4,69.1,76.1,69.1z"/>
		<path class="st0" d="M23.9,98.2c3.7,0,6.8-3,6.8-6.8s-3-6.8-6.8-6.8s-6.8,3-6.8,6.8S20.2,98.2,23.9,98.2z M23.9,88.4
			c1.6,0,3,1.3,3,3s-1.3,3-3,3c-1.6,0-3-1.3-3-3S22.3,88.4,23.9,88.4z"/>
		<path class="st0" d="M41.3,98.2c3.8,0,6.8-3,6.8-6.8s-3-6.8-6.8-6.8c-3.7,0-6.8,3-6.8,6.8S37.6,98.2,41.3,98.2z M41.3,88.4
			c1.6,0,3,1.3,3,3s-1.4,3-3,3s-3-1.3-3-3S39.7,88.4,41.3,88.4z"/>
		<path class="st0" d="M58.7,98.2c3.7,0,6.8-3,6.8-6.8s-3-6.8-6.8-6.8s-6.8,3-6.8,6.8S54.9,98.2,58.7,98.2z M58.7,88.4
			c1.6,0,3,1.3,3,3s-1.3,3-3,3c-1.6,0-3-1.3-3-3S57.1,88.4,58.7,88.4z"/>
		<path class="st0" d="M76.1,98.2c3.7,0,6.8-3,6.8-6.8s-3-6.8-6.8-6.8c-3.7,0-6.8,3-6.8,6.8S72.3,98.2,76.1,98.2z M76.1,88.4
			c1.6,0,3,1.3,3,3s-1.3,3-3,3c-1.6,0-3-1.3-3-3S74.4,88.4,76.1,88.4z"/>
	</g>
</g>
</svg>
