<?xml version="1.0" encoding="utf-8"?>
<!-- Generator: Adobe Illustrator 24.0.0, SVG Export Plug-In . SVG Version: 6.00 Build 0)  -->
<svg version="1.1"
	 id="Calque_1" xmlns:cc="http://creativecommons.org/ns#" xmlns:dc="http://purl.org/dc/elements/1.1/" xmlns:inkscape="http://www.inkscape.org/namespaces/inkscape" xmlns:rdf="http://www.w3.org/1999/02/22-rdf-syntax-ns#" xmlns:sodipodi="http://sodipodi.sourceforge.net/DTD/sodipodi-0.dtd" xmlns:svg="http://www.w3.org/2000/svg"
	 xmlns="http://www.w3.org/2000/svg" xmlns:xlink="http://www.w3.org/1999/xlink" x="0px" y="0px" viewBox="0 0 100 125"
	 style="enable-background:new 0 0 100 125;" xml:space="preserve">
<style type="text/css">
	.st0{fill:#FFFFFF;}
</style>
<g transform="translate(0,-952.36218)">
	<path class="st0" d="M30.5,973.4c-6.5,0-13.1,2.5-18,7.5c-9.9,10-9.9,26.1,0,36.1l8.6,8.6c1.2,1.2,3.1,1.2,4.2,0s1.2-3.1,0-4.2
		l-8.6-8.6c-7.7-7.7-7.7-19.9,0-27.6c3.8-3.8,8.8-5.8,13.8-5.8c5,0,9.9,1.9,13.8,5.8l3.6,3.6c1.2,1.2,3.1,1.2,4.2,0c0,0,0,0,0,0
		l3.6-3.6c3.8-3.8,8.8-5.8,13.8-5.8c5,0,9.9,1.9,13.8,5.8c7.7,7.7,7.7,19.9,0,27.6L50,1046l-15.9-15.9c-1.1-1.2-3-1.4-4.2-0.3
		s-1.4,3-0.3,4.2c0.1,0.1,0.2,0.2,0.3,0.3l17.3,17.3l0,0.1c0.5,1.1,1.6,1.7,2.7,1.7h0.2c1.2,0,2.2-0.7,2.7-1.7l34.7-34.7
		c9.9-10,9.9-26.1,0-36.1c-5-5-11.5-7.5-18-7.5c-6.5,0-13.1,2.5-18,7.5l-1.5,1.5l-1.5-1.5C43.6,975.9,37,973.4,30.5,973.4z"/>
</g>
</svg>
