<svg id="Calque_1" data-name="Calque 1" xmlns="http://www.w3.org/2000/svg" viewBox="0 0 321.78 557.45"><defs><style>.cls-1{fill:#fff;}</style></defs><title>ecrans</title><path class="cls-1" d="M458.53,617.45a59.13,59.13,0,0,1-59.32,59.07H196.07a59.22,59.22,0,0,1-59.32-59.06V178.13a59.13,59.13,0,0,1,59.32-59.06H399.21a59.25,59.25,0,0,1,59.32,59.07ZM204.73,137.2h-7.82a42.12,42.12,0,0,0-42,42.33V620.59a42.21,42.21,0,0,0,42,42.33H398.37a42.12,42.12,0,0,0,42-42.34v-441a42.25,42.25,0,0,0-42-42.34h-7.82v20.91a38,38,0,0,1-38,38H242.74a38,38,0,0,1-38-38Zm18.13,0v19.67A21.11,21.11,0,0,0,244,178H355.49c11.84,0,21.46-9.15,21.46-20.39V137.2Z" transform="translate(-136.75 -119.07)"/></svg>