<svg id="Calque_1" data-name="Calque 1" xmlns="http://www.w3.org/2000/svg" viewBox="0 0 492.5 558.11"><defs><style>.cls-1{fill:#fff;}</style></defs><title>equipo</title><path class="cls-1" d="M441.71,346.67c30.38-24.23,45.42-65.14,29.73-109.33-11.51-32.42-41.26-54.89-75.42-59.06Q369.41,175,346.89,184c-23.43-33-63.74-54.53-109.2-49.93-54,5.44-98,48.23-104.56,102.07a116.41,116.41,0,0,0,47.63,109c-75,20.52-129.37,88.66-129.37,169.25V676.91A14.7,14.7,0,0,0,66,691.57H433.75a14.7,14.7,0,0,0,14.65-14.66V646.34h80.84a14.7,14.7,0,0,0,14.65-14.66V492.47A154.51,154.51,0,0,0,441.71,346.67Zm-75.34-95.73a122.94,122.94,0,0,0-7.32-40.3A69,69,0,0,1,381,207a65.94,65.94,0,1,1,0,131.88,63.94,63.94,0,0,1-41-14.65C356.85,304.43,366.37,278.78,366.37,250.94Zm-205.15,0a87.93,87.93,0,1,1,87.92,87.92A88.18,88.18,0,0,1,161.22,250.94Zm257,410.47H81.54V516.47c0-80.6,65.94-146.54,146.54-146.54h43.63c80.6,0,146.54,65.94,146.54,146.54Zm95.49-45.23H448.4V512.72A178.4,178.4,0,0,0,370,364.91H394c66.06,0,119.78,56.17,119.78,125.64Z" transform="translate(-51.39 -133.46)"/></svg>