<svg id="Calque_1" data-name="Calque 1" xmlns="http://www.w3.org/2000/svg" viewBox="0 0 510.76 562.11"><defs><style>.cls-1{fill:#fff;}</style></defs><title>faq</title><path class="cls-1" d="M553,255.4A113.79,113.79,0,0,0,439.24,141.62H156A113.78,113.78,0,0,0,42.26,255.4V477c0,56,42.07,102.74,97.29,112.08v95.95c0,6.79,4.26,13.59,10.23,17,2.55,1.7,6,1.7,8.52,1.7a17.17,17.17,0,0,0,11.08-3.4l57.12-41.6A359.93,359.93,0,0,1,440.32,590c62.42.26,112.7-51.37,112.7-113.79Zm-36.49,226c0,41.59-34,75.52-75.62,75.57-83.44.1-163.5,26.42-231.78,75.57l-27,19.53V575.62a18.73,18.73,0,0,0-18.82-18.68c-43.16.24-78.47-33.81-78.47-75.57V259.75a75.8,75.8,0,0,1,75.57-75.57H441a75.79,75.79,0,0,1,75.57,75.57Z" transform="translate(-42.26 -141.62)"/><path class="cls-1" d="M297.91,265.2c-30.45,0-60.08,19.6-60.52,57.19-.09,8,4.84,15.66,12.44,18.15a18.34,18.34,0,0,0,24-17.3c0-19.9,21.56-20.73,24-20.73s24,.83,24,20.73v5.18c0,8.34-4.17,15-11.68,19.19l-16.7,9.18A27.06,27.06,0,0,0,279.4,381v14.91c0,8,4.59,15.63,12.11,18.24A18.34,18.34,0,0,0,315.88,397V386.9l11.68-5.85a58.05,58.05,0,0,0,30.88-51.74v-6.07C358.44,285.09,327.76,265.2,297.91,265.2Z" transform="translate(-42.26 -141.62)"/><path class="cls-1" d="M299.23,436.65c-30.56,0-30.56,47.55,0,47.55S329.8,436.65,299.23,436.65Z" transform="translate(-42.26 -141.62)"/></svg>