<svg id="Calque_1" data-name="Calque 1" xmlns="http://www.w3.org/2000/svg" viewBox="0 0 526.95 524.32"><defs><style>.cls-1{fill:#fff;}</style></defs><title>Fonction</title><path class="cls-1" d="M166.57,401.49a130.41,130.41,0,0,0,65.75-17.76v1.32H444.45c54.88,0,103.75-37.83,114.35-91.68C573.34,219.57,517.24,154.9,446,154.9H232.32v1.31a131.52,131.52,0,1,0-65.75,245.28ZM269.08,186H440.56c43.68,0,81.4,33.56,83.32,77.21a80.87,80.87,0,0,1-80.78,84.52h-174A129.4,129.4,0,0,0,269.08,186ZM166,170.84a98,98,0,1,1-98,98A98,98,0,0,1,166,170.84Z" transform="translate(-34.16 -138.44)"/><path class="cls-1" d="M428.71,399.71A130.52,130.52,0,0,0,363,417.47v-1.32H150.83c-54.89,0-103.76,37.83-114.36,91.68C21.94,581.64,78,646.3,149.24,646.3H363V645a131.51,131.51,0,1,0,65.76-245.28ZM324.12,609H152.64c-43.69,0-81.4-33.56-83.32-77.2a80.87,80.87,0,0,1,80.78-84.53h174A129.37,129.37,0,0,0,324.12,609Zm103.09,19a98,98,0,1,1,98-98A98,98,0,0,1,427.21,628Z" transform="translate(-34.16 -138.44)"/></svg>