<?xml version="1.0" encoding="utf-8"?>
<!-- Generator: Adobe Illustrator 24.0.0, SVG Export Plug-In . SVG Version: 6.00 Build 0)  -->
<svg version="1.1"
	 id="Calque_1" xmlns:cc="http://creativecommons.org/ns#" xmlns:dc="http://purl.org/dc/elements/1.1/" xmlns:inkscape="http://www.inkscape.org/namespaces/inkscape" xmlns:rdf="http://www.w3.org/1999/02/22-rdf-syntax-ns#" xmlns:sodipodi="http://sodipodi.sourceforge.net/DTD/sodipodi-0.dtd" xmlns:svg="http://www.w3.org/2000/svg"
	 xmlns="http://www.w3.org/2000/svg" xmlns:xlink="http://www.w3.org/1999/xlink" x="0px" y="0px" viewBox="0 0 25.4 31.8"
	 style="enable-background:new 0 0 25.4 31.8;" xml:space="preserve">
<style type="text/css">
	.st0{fill:#FFFFFF;}
</style>
<g transform="translate(0,-271.59998)">
	<path class="st0" d="M12.7,272.7c-4.7,0-8.5,3.8-8.5,8.5c0,3.4,2.1,7,4.1,9.8s4,4.8,4,4.8c0.2,0.2,0.5,0.2,0.7,0c0,0,2-2,4-4.8
		s4.1-6.4,4.1-9.8C21.2,276.5,17.4,272.7,12.7,272.7z M12.7,273.7c4.1,0,7.4,3.3,7.4,7.4c0,3-1.9,6.5-3.9,9.2
		c-1.8,2.5-3.2,3.9-3.5,4.2c-0.3-0.3-1.8-1.8-3.5-4.2c-2-2.7-3.9-6.3-3.9-9.2C5.3,277,8.6,273.7,12.7,273.7z"/>
	<path class="st0" d="M12.7,277.4c-2,0-3.7,1.7-3.7,3.7s1.7,3.7,3.7,3.7s3.7-1.7,3.7-3.7S14.7,277.4,12.7,277.4z M12.7,278.5
		c1.5,0,2.6,1.2,2.6,2.6s-1.2,2.6-2.6,2.6s-2.6-1.2-2.6-2.6C10.1,279.7,11.2,278.5,12.7,278.5z"/>
</g>
</svg>
