<?xml version="1.0" encoding="utf-8"?>
<!-- Generator: Adobe Illustrator 24.0.0, SVG Export Plug-In . SVG Version: 6.00 Build 0)  -->
<svg version="1.1" id="Calque_1" xmlns="http://www.w3.org/2000/svg" xmlns:xlink="http://www.w3.org/1999/xlink" x="0px" y="0px"
	 viewBox="0 0 256 256" style="enable-background:new 0 0 256 256;" xml:space="preserve">
<style type="text/css">
	.st0{fill:#FFFFFF;}
</style>
<g>
	<path class="st0" d="M128,31.9c31.3,0,35,0.1,47.4,0.7c11.4,0.5,17.6,2.4,21.8,4c5.5,2.1,9.4,4.7,13.5,8.8c4.1,4.1,6.6,8,8.8,13.5
		c1.6,4.1,3.5,10.3,4,21.8c0.6,12.4,0.7,16.1,0.7,47.4s-0.1,35-0.7,47.4c-0.5,11.4-2.4,17.6-4,21.8c-2.1,5.5-4.7,9.4-8.8,13.5
		c-4.1,4.1-8,6.6-13.5,8.8c-4.1,1.6-10.3,3.5-21.8,4c-12.4,0.6-16.1,0.7-47.4,0.7s-35-0.1-47.4-0.7c-11.4-0.5-17.6-2.4-21.8-4
		c-5.5-2.1-9.4-4.7-13.5-8.8s-6.6-8-8.8-13.5c-1.6-4.1-3.5-10.3-4-21.8C32,163,31.9,159.3,31.9,128s0.1-35,0.7-47.4
		c0.5-11.4,2.4-17.6,4-21.8c2.1-5.5,4.7-9.4,8.8-13.5s8-6.6,13.5-8.8c4.1-1.6,10.3-3.5,21.8-4C93,32,96.7,31.9,128,31.9 M128,10.7
		c-31.8,0-35.8,0.1-48.3,0.7c-12.5,0.6-21,2.6-28.5,5.5c-7.7,3-14.2,7-20.8,13.5S19.9,43.5,16.9,51.2c-2.9,7.5-4.9,16-5.5,28.5
		c-0.6,12.5-0.7,16.5-0.7,48.3s0.1,35.8,0.7,48.3c0.6,12.5,2.6,21,5.5,28.5c3,7.7,7,14.2,13.5,20.8s13.1,10.5,20.8,13.5
		c7.5,2.9,16,4.9,28.5,5.5c12.5,0.6,16.5,0.7,48.3,0.7s35.8-0.1,48.3-0.7c12.5-0.6,21-2.6,28.5-5.5c7.7-3,14.2-7,20.8-13.5
		c6.5-6.5,10.5-13.1,13.5-20.8c2.9-7.5,4.9-16,5.5-28.5c0.6-12.5,0.7-16.5,0.7-48.3s-0.1-35.8-0.7-48.3c-0.6-12.5-2.6-21-5.5-28.5
		c-3-7.7-7-14.2-13.5-20.8c-6.5-6.5-13.1-10.5-20.8-13.5c-7.5-2.9-16-4.9-28.5-5.5C163.8,10.9,159.8,10.7,128,10.7z M128,67.8
		c-33.3,0-60.2,27-60.2,60.2s27,60.2,60.2,60.2s60.2-27,60.2-60.2S161.3,67.8,128,67.8z M128,167.1c-21.6,0-39.1-17.5-39.1-39.1
		c0-21.6,17.5-39.1,39.1-39.1s39.1,17.5,39.1,39.1C167.1,149.6,149.6,167.1,128,167.1z M204.7,65.4c0,7.8-6.3,14.1-14.1,14.1
		s-14.1-6.3-14.1-14.1s6.3-14.1,14.1-14.1S204.7,57.6,204.7,65.4z"/>
</g>
</svg>
