<?xml version="1.0" encoding="utf-8"?>
<!-- Generator: Adobe Illustrator 24.0.0, SVG Export Plug-In . SVG Version: 6.00 Build 0)  -->
<svg version="1.1" id="Calque_1" xmlns="http://www.w3.org/2000/svg" xmlns:xlink="http://www.w3.org/1999/xlink" x="0px" y="0px"
	 viewBox="0 0 595.3 841.9" style="enable-background:new 0 0 595.3 841.9;" xml:space="preserve">
<style type="text/css">
	.st0{fill:#FFFFFF;}
</style>
<g>
	<path class="st0" d="M310,297.5c42.1,0,47.1,0.1,63.8,0.9c15.3,0.7,23.7,3.2,29.3,5.4c7.4,2.8,12.6,6.3,18.2,11.8
		c5.5,5.5,8.9,10.8,11.8,18.2c2.2,5.5,4.7,13.9,5.4,29.3c0.8,16.7,0.9,21.7,0.9,63.8s-0.1,47.1-0.9,63.8
		c-0.7,15.3-3.2,23.7-5.4,29.3c-2.8,7.4-6.3,12.6-11.8,18.2c-5.5,5.5-10.8,8.9-18.2,11.8c-5.5,2.2-13.9,4.7-29.3,5.4
		c-16.7,0.8-21.7,0.9-63.8,0.9s-47.1-0.1-63.8-0.9c-15.3-0.7-23.7-3.2-29.3-5.4c-7.4-2.8-12.6-6.3-18.2-11.8
		c-5.5-5.5-8.9-10.8-11.8-18.2c-2.2-5.5-4.7-13.9-5.4-29.3c-0.7-16.8-0.8-21.8-0.8-63.9s0.1-47.1,0.9-63.8
		c0.7-15.3,3.2-23.7,5.4-29.3c2.8-7.4,6.3-12.6,11.8-18.2c5.5-5.5,10.8-8.9,18.2-11.8c5.5-2.2,13.9-4.7,29.3-5.4
		C262.9,297.6,267.9,297.5,310,297.5 M310,269c-42.8,0-48.2,0.1-65,0.9c-16.8,0.8-28.3,3.5-38.3,7.4c-10.4,4-19.1,9.4-28,18.2
		s-14.1,17.6-18.2,28c-3.9,10.1-6.6,21.5-7.4,38.3c-0.8,16.8-0.9,22.2-0.9,65s0.1,48.2,0.9,65c0.8,16.8,3.5,28.3,7.4,38.3
		c4,10.4,9.4,19.1,18.2,28c8.7,8.9,17.6,14.1,28,18.2c10.1,3.9,21.5,6.6,38.3,7.4c16.8,0.8,22.2,0.9,65,0.9s48.2-0.1,65-0.9
		c16.8-0.8,28.3-3.5,38.3-7.4c10.4-4,19.1-9.4,28-18.2c8.7-8.7,14.1-17.6,18.2-28c3.9-10.1,6.6-21.5,7.4-38.3
		c0.8-16.8,0.9-22.2,0.9-65s-0.1-48.2-0.9-65c-0.8-16.8-3.5-28.3-7.4-38.3c-4-10.4-9.4-19.1-18.2-28c-8.7-8.7-17.6-14.1-28-18.2
		c-10.1-3.9-21.5-6.6-38.3-7.4C358.2,269.2,352.8,269,310,269z M310,345.8c-44.8,0-81,36.3-81,81s36.3,81,81,81s81-36.3,81-81
		S354.8,345.8,310,345.8z M310,479.4c-29.1,0-52.6-23.5-52.6-52.6c0-29.1,23.5-52.6,52.6-52.6s52.6,23.5,52.6,52.6
		C362.6,455.8,339.1,479.4,310,479.4z M413.2,342.6c0,10.5-8.5,19-19,19c-10.5,0-19-8.5-19-19c0-10.5,8.5-19,19-19
		C404.7,323.6,413.2,332.1,413.2,342.6z"/>
</g>
</svg>
