<?xml version="1.0" encoding="utf-8"?>
<!-- Generator: Adobe Illustrator 24.0.0, SVG Export Plug-In . SVG Version: 6.00 Build 0)  -->
<svg version="1.1" id="Calque_1" xmlns="http://www.w3.org/2000/svg" xmlns:xlink="http://www.w3.org/1999/xlink" x="0px" y="0px"
	 viewBox="0 0 595.3 841.9" style="enable-background:new 0 0 595.3 841.9;" xml:space="preserve">
<style type="text/css">
	.st0{fill:#FFFFFF;}
</style>
<g>
	<path class="st0" d="M291.9,316.1c31.3,0,35,0.1,47.4,0.7c11.4,0.5,17.6,2.4,21.8,4c5.5,2.1,9.4,4.7,13.5,8.8
		c4.1,4.1,6.6,8,8.8,13.5c1.6,4.1,3.5,10.3,4,21.8c0.6,12.4,0.7,16.1,0.7,47.4s-0.1,35-0.7,47.4c-0.5,11.4-2.4,17.6-4,21.8
		c-2.1,5.5-4.7,9.4-8.8,13.5s-8,6.6-13.5,8.8c-4.1,1.6-10.3,3.5-21.8,4c-12.4,0.6-16.1,0.7-47.4,0.7s-35-0.1-47.4-0.7
		c-11.4-0.5-17.6-2.4-21.8-4c-5.5-2.1-9.4-4.7-13.5-8.8s-6.6-8-8.8-13.5c-1.6-4.1-3.5-10.3-4-21.8c-0.5-12.5-0.6-16.2-0.6-47.5
		s0.1-35,0.7-47.4c0.5-11.4,2.4-17.6,4-21.8c2.1-5.5,4.7-9.4,8.8-13.5c4.1-4.1,8-6.6,13.5-8.8c4.1-1.6,10.3-3.5,21.8-4
		C256.9,316.2,260.6,316.1,291.9,316.1 M291.9,294.9c-31.8,0-35.8,0.1-48.3,0.7c-12.5,0.6-21,2.6-28.5,5.5c-7.7,3-14.2,7-20.8,13.5
		c-6.6,6.5-10.5,13.1-13.5,20.8c-2.9,7.5-4.9,16-5.5,28.5s-0.7,16.5-0.7,48.3s0.1,35.8,0.7,48.3s2.6,21,5.5,28.5
		c3,7.7,7,14.2,13.5,20.8s13.1,10.5,20.8,13.5c7.5,2.9,16,4.9,28.5,5.5c12.5,0.6,16.5,0.7,48.3,0.7s35.8-0.1,48.3-0.7
		c12.5-0.6,21-2.6,28.5-5.5c7.7-3,14.2-7,20.8-13.5c6.5-6.5,10.5-13.1,13.5-20.8c2.9-7.5,4.9-16,5.5-28.5s0.7-16.5,0.7-48.3
		s-0.1-35.8-0.7-48.3c-0.6-12.5-2.6-21-5.5-28.5c-3-7.7-7-14.2-13.5-20.8c-6.5-6.5-13.1-10.5-20.8-13.5c-7.5-2.9-16-4.9-28.5-5.5
		C327.7,295.1,323.7,294.9,291.9,294.9z M291.9,352c-33.3,0-60.2,27-60.2,60.2s27,60.2,60.2,60.2s60.2-27,60.2-60.2
		S325.2,352,291.9,352z M291.9,451.3c-21.6,0-39.1-17.5-39.1-39.1c0-21.6,17.5-39.1,39.1-39.1s39.1,17.5,39.1,39.1
		C331,433.8,313.5,451.3,291.9,451.3z M368.6,349.6c0,7.8-6.3,14.1-14.1,14.1c-7.8,0-14.1-6.3-14.1-14.1c0-7.8,6.3-14.1,14.1-14.1
		C362.3,335.5,368.6,341.8,368.6,349.6z"/>
</g>
</svg>
