<?xml version="1.0" encoding="utf-8"?>
<!-- Generator: Adobe Illustrator 24.0.0, SVG Export Plug-In . SVG Version: 6.00 Build 0)  -->
<svg version="1.1" id="Calque_1" xmlns="http://www.w3.org/2000/svg" xmlns:xlink="http://www.w3.org/1999/xlink" x="0px" y="0px"
	 viewBox="0 0 48 60" style="enable-background:new 0 0 48 60;" xml:space="preserve">
<style type="text/css">
	.st0{fill:#FFFFFF;}
</style>
<g>
	<path class="st0" d="M18.9,54c-1.7,0-3.2-0.5-4.6-1.4C11.7,50.7,4.1,43,2.9,34.1c-0.6-4.5,0.6-8.5,3.5-12c0.2-0.2,4.5-4.5,9.6-4
		c2.3,0.2,3,0.6,3.6,0.8c0.6,0.2,1,0.4,3.5,0.4c2.5,0,2.9-0.2,3.5-0.4c0.6-0.3,1.4-0.6,3.6-0.8c5.1-0.5,9.4,3.8,9.6,3.9
		c3,3.5,4.1,7.5,3.5,12C42.2,43,34.6,50.7,32,52.6c-1.4,1-2.9,1.4-4.6,1.4l0,0c-1.8,0-3.4-0.6-4.3-1C22.3,53.4,20.7,54,18.9,54z
		 M15.1,20.2c-3.9,0-7.2,3.3-7.2,3.4c-2.5,2.9-3.5,6.4-3,10.4c1.1,8.1,8.2,15.4,10.6,17c1.1,0.7,2.2,1.1,3.5,1.1
		c1.8,0,3.3-0.8,3.7-1c0.3-0.2,0.7-0.2,1,0c0.4,0.2,1.9,1,3.7,1l0,0c1.2,0,2.4-0.4,3.5-1.1c2.3-1.6,9.5-9,10.6-17
		c0.5-3.9-0.5-7.4-3-10.4l0,0c0,0-3.7-3.7-7.9-3.3c-2,0.2-2.6,0.5-3.1,0.7c-0.9,0.4-1.6,0.6-4.3,0.6c-2.7,0-3.4-0.2-4.3-0.6
		c-0.5-0.2-1.1-0.5-3.1-0.7C15.6,20.2,15.3,20.2,15.1,20.2z"/>
	<path class="st0" d="M23.2,20.9c0,0-0.1,0-0.1,0c-0.5-0.1-0.9-0.6-0.8-1.1c1.1-7.2-3.9-11.9-4-12c-0.4-0.4-0.4-1,0-1.4
		c0.4-0.4,1-0.4,1.4-0.1c0.2,0.2,5.8,5.5,4.6,13.7C24.1,20.5,23.6,20.9,23.2,20.9z"/>
	<path class="st0" d="M28.7,17.6c-1.8,0-3.8-0.5-5.8-1.4c-0.3-0.2-0.6-0.5-0.6-0.8c0-0.1-0.2-2.9,2.1-5.3c2.7-2.8,7.5-3.8,14.2-2.7
		c0.5,0.1,0.8,0.5,0.8,1C39.4,9,36.4,17.6,28.7,17.6z M24.4,14.6c1.5,0.6,3,1,4.3,1c4.9,0,7.4-4.3,8.4-6.4
		c-5.4-0.7-9.2,0.1-11.2,2.3C24.8,12.6,24.4,13.9,24.4,14.6z"/>
</g>
</svg>
