<svg id="Calque_1" data-name="Calque 1" xmlns="http://www.w3.org/2000/svg" viewBox="0 0 510.48 348.76"><defs><style>.cls-1{fill:#fff;}</style></defs><title>Projet</title><path class="cls-1" d="M552.88,437.11,306.48,288a174.1,174.1,0,1,0,0,298.2ZM112.53,540.72c-57.5-57.49-57.5-150.37,0-207.23A146.39,146.39,0,0,1,292,311.38L500.44,437.11,292.58,562.83A147.19,147.19,0,0,1,112.53,540.72Z" transform="translate(-42.4 -262.73)"/><path class="cls-1" d="M245.2,510.39a74.25,74.25,0,0,1-61.91-20.85c-10.11-10.1-17.06-22.11-19.59-36l-24.64,5.69c3.79,18.32,13.27,34.75,26.54,48.65,21.48,21.48,53.07,32.22,83.39,28.43Z" transform="translate(-42.4 -262.73)"/></svg>