<svg id="Calque_1" data-name="Calque 1" xmlns="http://www.w3.org/2000/svg" viewBox="0 0 291.86 229.69"><defs><style>.cls-1,.cls-3{fill:none;stroke:#fff;stroke-miterlimit:10;}.cls-1{stroke-width:2.52px;}.cls-2{fill:#fff;}.cls-3{stroke-width:2.86px;}.cls-4,.cls-5{isolation:isolate;}.cls-5{font-size:25px;fill:#9d9d9d;font-family:Oswald-Regular, Oswald Regular;}</style></defs><title>quali1.1</title><rect class="cls-1" x="1.43" y="1.26" width="289" height="41.65" rx="12"/><polygon class="cls-2" points="145.93 42.91 166.2 1.26 16.58 1.26 6.58 4.08 2.1 11.96 2.1 32.21 5.22 39.12 14.05 42.91 145.93 42.91"/><rect class="cls-3" x="1.43" y="63.1" width="289" height="41.65" rx="12"/><polygon class="cls-2" points="232.34 104.75 252.61 63.1 15.9 63.1 6.9 64.92 1.43 73.8 1.43 94.05 4.55 100.96 13.38 104.75 232.34 104.75"/><rect class="cls-1" x="1.43" y="124.94" width="289" height="41.65" rx="12"/><polygon class="cls-2" points="194.83 166.59 215.1 124.94 17.17 124.94 5.17 127.75 1.69 135.64 2.69 158.89 5.81 163.8 14.64 166.59 194.83 166.59"/><rect class="cls-1" x="1.43" y="186.78" width="289" height="41.65" rx="12"/><polygon class="cls-2" points="192.74 228.42 213.01 186.78 17.17 186.78 5.17 189.59 1.69 197.48 2.69 217.72 3.81 223.64 12.64 228.42 192.74 228.42"/><g class="cls-4"><text class="cls-5" transform="translate(15.54 93.85)">Conception g</text><text class="cls-5" transform="translate(133.52 93.85)">r</text><text class="cls-5" transform="translate(141.54 93.85)">aphique</text></g><text class="cls-5" transform="translate(15.54 155.63)">Conception Visuelle</text><text class="cls-5" transform="translate(14.3 218.42)">UX Design</text><text class="cls-5" transform="translate(15.54 31.06)">HTML / CSS</text></svg>