<svg id="Calque_1" data-name="Calque 1" xmlns="http://www.w3.org/2000/svg" viewBox="0 0 291.86 254.46"><defs><style>.cls-1,.cls-3{fill:none;stroke:#fff;stroke-miterlimit:10;}.cls-1{stroke-width:2.52px;}.cls-2{fill:#fff;}.cls-3{stroke-width:2.86px;}.cls-4{font-size:25px;fill:#1d1d1b;font-family:Oswald-Regular, Oswald Regular;}.cls-5{letter-spacing:0em;}</style></defs><title>Quali2</title><rect class="cls-1" x="1.43" y="1.26" width="289" height="41.65" rx="12"/><polygon class="cls-2" points="238.52 42.91 258.79 1.26 16.58 1.26 6.58 4.08 2.1 11.96 2.1 32.21 5.22 39.12 14.05 42.91 238.52 42.91"/><rect class="cls-3" x="1.43" y="63.1" width="289" height="41.65" rx="12"/><polygon class="cls-2" points="212.39 104.75 232.66 63.1 15.9 63.1 6.9 64.92 1.43 73.8 1.43 94.05 4.55 100.96 13.38 104.75 212.39 104.75"/><rect class="cls-1" x="1.43" y="124.94" width="289" height="41.65" rx="12"/><polygon class="cls-2" points="238.52 166.59 258.79 124.94 17.17 124.94 5.17 127.75 1.69 135.64 2.69 158.89 5.81 163.8 14.64 166.59 238.52 166.59"/><rect class="cls-1" x="1.43" y="186.78" width="289" height="41.65" rx="12"/><polygon class="cls-2" points="142.75 228.42 163.01 186.78 17.17 186.78 5.17 189.59 1.69 197.48 2.69 217.72 3.81 223.64 12.64 228.42 142.75 228.42"/><text class="cls-4" transform="translate(15.54 93.85)">Conception g<tspan class="cls-5" x="117.98" y="0">r</tspan><tspan x="126" y="0">aphique</tspan></text><text class="cls-4" transform="translate(15.54 155.63)">Conception Visuelle</text><text class="cls-4" transform="translate(14.3 218.42)">UX Design</text><text class="cls-4" transform="translate(15.54 31.06)">HTML / CSS</text></svg>