<?xml version="1.0" encoding="utf-8"?>
<!-- Generator: Adobe Illustrator 24.0.0, SVG Export Plug-In . SVG Version: 6.00 Build 0)  -->
<svg version="1.1" id="Calque_1" xmlns="http://www.w3.org/2000/svg" xmlns:xlink="http://www.w3.org/1999/xlink" x="0px" y="0px"
	 viewBox="0 0 291.9 254.5" style="enable-background:new 0 0 291.9 254.5;" xml:space="preserve">
<style type="text/css">
	.st0{fill:none;stroke:#FFFFFF;stroke-width:2.52;stroke-miterlimit:10;}
	.st1{fill:#FFFFFF;}
	.st2{fill:none;stroke:#FFFFFF;stroke-width:2.86;stroke-miterlimit:10;}
	.st3{fill:#9D9D9D;}
	.st4{font-family:'Oswald-Regular';}
	.st5{font-size:25px;}
</style>
<title>Quali2</title>
<path class="st0" d="M13.4,1.3h265c6.6,0,12,5.4,12,12v17.6c0,6.6-5.4,12-12,12h-265c-6.6,0-12-5.4-12-12V13.3
	C1.4,6.6,6.8,1.3,13.4,1.3z"/>
<polygon class="st1" points="54,1.3 33.7,42.9 275.9,42.9 285.9,40.1 290.4,32.2 290.4,12 287.3,5.1 278.5,1.3 "/>
<path class="st2" d="M13.4,63.1h265c6.6,0,12,5.4,12,12v17.7c0,6.6-5.4,12-12,12h-265c-6.6,0-12-5.4-12-12V75.1
	C1.4,68.5,6.8,63.1,13.4,63.1z"/>
<polygon class="st1" points="79.5,63.1 59.2,104.8 276,104.8 285,102.9 290.4,94.1 290.4,73.8 287.3,66.9 278.5,63.1 "/>
<path class="st0" d="M13.4,124.9h265c6.6,0,12,5.4,12,12v17.6c0,6.6-5.4,12-12,12h-265c-6.6,0-12-5.4-12-12v-17.6
	C1.4,130.3,6.8,124.9,13.4,124.9z"/>
<polygon class="st1" points="53.8,124.9 33.5,166.6 275.2,166.6 287.2,163.8 290.6,155.9 289.6,132.6 286.5,127.7 277.7,124.9 "/>
<path class="st0" d="M13.4,186.8h265c6.6,0,12,5.4,12,12v17.6c0,6.6-5.4,12-12,12h-265c-6.6,0-12-5.4-12-12v-17.6
	C1.4,192.2,6.8,186.8,13.4,186.8z"/>
<polygon class="st1" points="149.4,186.8 129.1,228.4 274.9,228.4 286.9,225.6 290.4,217.7 289.4,197.5 288.3,191.6 279.5,186.8 "/>
<text transform="matrix(1 0 0 1 86.93 93.85)" class="st3 st4 st5">Conception g</text>
<text transform="matrix(1 0 0 1 204.91 93.85)" class="st3 st4 st5">r</text>
<text transform="matrix(1 0 0 1 212.9299 93.85)" class="st3 st4 st5">aphique</text>
<text transform="matrix(1 0 0 1 107.0431 155.63)" class="st3 st4 st5">Conception Visuelle</text>
<text transform="matrix(1 0 0 1 194.0382 218.42)" class="st3 st4 st5">UX Design</text>
<text transform="matrix(1 0 0 1 176.815 31.06)" class="st3 st4 st5">HTML / CSS</text>
</svg>
