<?xml version="1.0" encoding="utf-8"?>
<!-- Generator: Adobe Illustrator 24.0.0, SVG Export Plug-In . SVG Version: 6.00 Build 0)  -->
<svg version="1.1" id="Calque_1" xmlns="http://www.w3.org/2000/svg" xmlns:xlink="http://www.w3.org/1999/xlink" x="0px" y="0px"
	 viewBox="0 0 841.9 595.3" style="enable-background:new 0 0 841.9 595.3;" xml:space="preserve">
<style type="text/css">
	.st0{fill:none;}
	.st1{opacity:0.1;fill:#D95C58;}
	.st2{opacity:0.2;fill:#D93B36;}
	.st3{opacity:0.2;fill:#7B2B2B;}
</style>
<path class="st0" d="M424.3,475.6c10.4-5.1,20.6-10.3,30.7-15.4c123.2-62.8,250.1-110,378.8-160.1c0,0-261.5-111.3-432.2-197.2
	C153.8-21.8,10.4,167.5,10.4,300.1c0,132.8,127.8,238.9,252.6,232.7C312.5,530.4,379.4,497.5,424.3,475.6z"/>
<path class="st1" d="M399.9,102.2C152-22.6,8.7,166.7,8.7,299.3c0,1.1,0.1,2.2,0.1,3.4c303.6-199.9,823.3-3.4,823.3-3.4
	S570.6,188.1,399.9,102.2z"/>
<path class="st2" d="M473.3,406.1c-14.8,5.1-29.8,10.3-45,15.4c-65.7,21.9-163.6,54.8-236,57.2c-29.9,1-59.9-1-89.2-5.6
	c46.2,37.1,104.9,58.6,162.9,55.7c49.5-2.5,116.4-35.3,161.3-57.2c10.4-5.1,20.6-10.3,30.7-15.4c121.4-61.9,246.3-108.6,373.1-157.9
	C710.1,331.1,590.6,365.3,473.3,406.1z"/>
<path class="st0" d="M559.7,347.7c-160.5,69.1-291.6,76.6-364.8,73.1c-30.6-1.5-43.5,40.8-17.5,58.1
	C297.3,558.4,559.7,347.7,559.7,347.7z"/>
<path class="st3" d="M261.9,531.1c49.5-2.5,116.4-35.3,161.3-57.2c10.4-5.1,20.6-10.3,30.7-15.4c123.2-62.8,250.1-110,378.8-160.1
	c0,0-261.5-111.3-432.2-197.2C152.6-23.6,9.3,165.7,9.3,298.4C9.3,431.1,137.1,537.3,261.9,531.1z M84.7,452.1
	c-43.6-42.9-67.6-97.5-67.6-153.7c0-62.1,33.7-146.4,108.9-195c52.1-33.7,141.4-60.1,271.1,5.1C540,180.4,748.8,271.1,811.4,298
	c-8.2,3.2-16.4,6.4-24.6,9.5c-116.5,45.1-226.6,87.7-336.4,143.6c-10.2,5.2-20.3,10.3-30.6,15.4L419,467
	c-43.7,21.4-109.8,53.7-157.4,56C199.1,526.1,133,499.6,84.7,452.1z"/>
</svg>
