<?xml version="1.0" encoding="utf-8"?>
<!-- Generator: Adobe Illustrator 24.0.0, SVG Export Plug-In . SVG Version: 6.00 Build 0)  -->
<svg version="1.1"
	 id="Calque_1" xmlns:cc="http://creativecommons.org/ns#" xmlns:dc="http://purl.org/dc/elements/1.1/" xmlns:inkscape="http://www.inkscape.org/namespaces/inkscape" xmlns:rdf="http://www.w3.org/1999/02/22-rdf-syntax-ns#" xmlns:sodipodi="http://sodipodi.sourceforge.net/DTD/sodipodi-0.dtd" xmlns:svg="http://www.w3.org/2000/svg"
	 xmlns="http://www.w3.org/2000/svg" xmlns:xlink="http://www.w3.org/1999/xlink" x="0px" y="0px" viewBox="0 0 100 125"
	 style="enable-background:new 0 0 100 125;" xml:space="preserve">
<style type="text/css">
	.st0{fill:#FFFFFF;}
</style>
<g transform="translate(0,-952.36218)">
	<path class="st0" d="M22.1,968.4c-3.9,0-7.1,3.2-7.1,7.1v20.9h-1.8c-3.9,0-7.2,3.1-7.2,7v22.8c0,0.1,0,0.1,0,0.2v8
		c0,0.3,0.1,0.5,0.2,0.8c0.1,0.2,0.2,0.4,0.3,0.5c0,0,0.1,0.1,0.1,0.1c0,0,0,0,0,0c0,0,0.1,0.1,0.2,0.1c0.5,0.4,1.1,0.5,1.7,0.4H16
		c1.1,0,2-0.9,2-2v-6h64v6c0,1.1,0.9,2,2,2h7.6c0.3,0.1,0.7,0,1-0.1c0,0,0,0,0,0c0.1,0,0.2-0.1,0.3-0.2c0,0,0,0,0,0
		c0.3-0.2,0.5-0.4,0.7-0.7c0.2-0.3,0.3-0.7,0.3-1.1v-8c0-0.1,0-0.1,0-0.2v-22.8c0-3.9-3.3-7-7.2-7H85v-20.9c0-3.9-3.2-7.1-7.1-7.1
		L22.1,968.4L22.1,968.4z M22.1,972.4h55.9c1.7,0,3.1,1.3,3.1,3.1v20.9h-7.4c0.3-0.8,0.4-1.7,0.4-2.7v-6.7c0-1.7-0.4-3.2-1.3-4.4
		c-0.9-1.2-2.3-2.2-3.9-2.2h-9.5c-1.7,0-3.1,1-3.9,2.2s-1.3,2.7-1.3,4.4v6.7c0,0.9,0.2,1.8,0.4,2.7h-8.9c0.3-0.8,0.4-1.7,0.4-2.7
		v-6.7c0-1.7-0.4-3.2-1.3-4.4c-0.9-1.2-2.3-2.2-3.9-2.2h-9.5c-1.7,0-3.1,1-3.9,2.2s-1.3,2.7-1.3,4.4v6.7c0,0.9,0.2,1.8,0.4,2.7H19
		v-20.9C19,973.7,20.3,972.4,22.1,972.4z M31.3,984.3h9.5c0.1,0,0.3,0.1,0.7,0.5c0.3,0.4,0.6,1.2,0.6,2.1v6.7c0,0.9-0.3,1.7-0.6,2.1
		c-0.3,0.4-0.5,0.5-0.7,0.5h-9.5c-0.1,0-0.3-0.1-0.7-0.5c-0.3-0.4-0.6-1.2-0.6-2.1v-6.7c0-0.9,0.3-1.7,0.6-2.1
		C30.9,984.4,31.1,984.3,31.3,984.3z M59.2,984.3h9.5c0.1,0,0.3,0.1,0.7,0.5c0.3,0.4,0.6,1.2,0.6,2.1v6.7c0,0.9-0.3,1.7-0.6,2.1
		c-0.3,0.4-0.5,0.5-0.7,0.5h-9.5c-0.1,0-0.3-0.1-0.7-0.5c-0.3-0.4-0.6-1.2-0.6-2.1v-6.7c0-0.9,0.3-1.7,0.6-2.1
		C58.9,984.4,59.1,984.3,59.2,984.3z M13.2,1000.3h3.5c0.3,0.1,0.5,0.1,0.8,0h65.2c0.3,0.1,0.5,0.1,0.8,0h3.4c1.8,0,3.2,1.3,3.2,3
		v7.9l-80,0.3v-8.2C10,1001.7,11.4,1000.3,13.2,1000.3z M90,1015.3v9H16h-6v-8.7L90,1015.3L90,1015.3z M10,1028.3h4v4h-4V1028.3z
		 M86,1028.3h4v4h-4V1028.3z"/>
</g>
</svg>
