<?xml version="1.0" encoding="utf-8"?>
<!-- Generator: Adobe Illustrator 24.0.0, SVG Export Plug-In . SVG Version: 6.00 Build 0)  -->
<svg version="1.1"
	 id="Calque_1" xmlns:cc="http://creativecommons.org/ns#" xmlns:dc="http://purl.org/dc/elements/1.1/" xmlns:rdf="http://www.w3.org/1999/02/22-rdf-syntax-ns#"
	 xmlns="http://www.w3.org/2000/svg" xmlns:xlink="http://www.w3.org/1999/xlink" x="0px" y="0px" viewBox="0 0 26.5 33.1"
	 style="enable-background:new 0 0 26.5 33.1;" xml:space="preserve">
<style type="text/css">
	.st0{fill:#FFFFFF;}
</style>
<g transform="translate(0 -270.54)">
	<path image-rendering="auto" color-rendering="auto" shape-rendering="auto" class="st0" d="M6.3,275c-0.3,0-0.6,0.1-0.8,0.4
		l-1.6,1.7c0,0,0,0-0.1,0.1c0,0,0,0.1-0.1,0.1c-0.6,2-0.2,4.3,0.8,6.4c1,2.1,2.7,4.2,4.6,5.9c1.9,1.7,4.1,3,6.2,3.7s4.1,0.6,5.6-0.4
		c0,0,0,0,0,0c0,0,0,0,0,0l0,0l1.6-1.7c0.5-0.5,0.4-1.3-0.1-1.7l-3.7-3.4c-0.5-0.5-1.3-0.4-1.7,0.1l-1.7,1.9
		c-1.4-0.4-2.5-1.1-3.7-2.1c-1.1-1-1.9-2.1-2.4-3.5l1.7-1.9c0.5-0.5,0.4-1.3-0.1-1.7l-3.7-3.4C7,275.1,6.6,275,6.3,275L6.3,275z
		 M6.4,275.8c0.1,0,0.2,0,0.3,0.1l3.7,3.4c0.2,0.2,0.2,0.5,0,0.6l-1.9,2c-0.1,0.1-0.1,0.3-0.1,0.4c0.6,1.5,1.5,2.8,2.7,4
		c1.3,1.1,2.6,1.9,4.2,2.3c0.1,0,0.3,0,0.4-0.1l1.9-2c0.2-0.2,0.5-0.2,0.6,0l3.7,3.4c0.2,0.2,0.2,0.5,0,0.6l-1.6,1.7
		c-1.2,0.9-2.9,0.9-4.9,0.3c-1.9-0.6-4-1.9-5.9-3.5s-3.5-3.6-4.5-5.6c-1-2-1.3-4-0.8-5.8l1.5-1.7C6.1,275.8,6.2,275.8,6.4,275.8
		L6.4,275.8z"/>
</g>
</svg>
