<?xml version="1.0" encoding="utf-8"?>
<!-- Generator: Adobe Illustrator 24.0.0, SVG Export Plug-In . SVG Version: 6.00 Build 0)  -->
<svg version="1.1" id="Calque_1" xmlns="http://www.w3.org/2000/svg" xmlns:xlink="http://www.w3.org/1999/xlink" x="0px" y="0px"
	 viewBox="0 0 595.3 841.9" style="enable-background:new 0 0 595.3 841.9;" xml:space="preserve">
<style type="text/css">
	.st0{fill:#FFFFFF;}
</style>
<g>
	<g>
		<path class="st0" d="M444.7,303.7c-11.3,5.8-23.4,9.6-36.2,11.4c13-8.9,23-23,27.7-39.8c-12.2,8.2-25.7,14.1-40,17.5
			c-11.4-14.1-27.8-22.8-45.9-22.8c-34.7,0-62.9,32.2-62.9,72.1c0,5.6,0.5,11.1,1.6,16.3c-52.2-2.9-98.6-31.7-129.6-75.2
			c-5.4,10.6-8.5,23-8.5,36.2c0,24.9,11.1,47.2,28,59.9c-10.3-0.4-20-3.5-28.5-9c0,0.3,0,0.7,0,1c0,34.9,21.7,64,50.4,70.7
			c-5.3,1.6-10.8,2.4-16.6,2.4c-4,0-7.9-0.3-11.8-1.3c8,28.7,31.2,49.6,58.7,50c-21.5,19.4-48.6,30.8-78.1,30.8
			c-5.1,0-10.1-0.3-15-1c27.8,20.5,60.8,32.5,96.4,32.5c115.6,0,178.9-109.9,178.9-205.1c0-3-0.1-6.1-0.2-9.2
			C425.6,330.9,436.3,318.2,444.7,303.7z"/>
	</g>
</g>
</svg>
